<svg xmlns="http://www.w3.org/2000/svg" viewBox="0 0 856.62 856.62"><title>onominute_logo_icon_black</title><g id="Layer_2" data-name="Layer 2"><g id="logo_edit"><path d="M428.31,0C191.76,0,0,191.76,0,428.31S191.76,856.62,428.31,856.62,856.62,664.86,856.62,428.31,664.86,0,428.31,0Zm-5.56,700.87c-153.61,0-278.13-124.52-278.13-278.12S269.14,144.62,422.75,144.62,700.87,269.14,700.87,422.75,576.35,700.87,422.75,700.87Z"/><path d="M427.26,405.59v17.16c0,5.81-9,5.8-9,0V405.23A17.5,17.5,0,0,0,410,410L265.36,554.61c-16.45,16.45,9.07,42,25.53,25.53L435.51,435.51C446.57,424.45,438.64,409.33,427.26,405.59Z"/><path d="M404.7,222.5V422.75c0,23.23,36.1,23.27,36.1,0V222.5C440.8,199.27,404.7,199.23,404.7,222.5Zm22.56,200.25c0,5.81-9,5.8-9,0V222.5c0-5.82,9-5.81,9,0Z"/><path d="M428.31,0C191.76,0,0,191.76,0,428.31S191.76,856.62,428.31,856.62,856.62,664.86,856.62,428.31,664.86,0,428.31,0Zm-5.56,700.87c-153.61,0-278.13-124.52-278.13-278.12S269.14,144.62,422.75,144.62,700.87,269.14,700.87,422.75,576.35,700.87,422.75,700.87Z"/><path d="M427.26,405.59v17.16c0,5.81-9,5.8-9,0V405.23A17.5,17.5,0,0,0,410,410L265.36,554.61c-16.45,16.45,9.07,42,25.53,25.53L435.51,435.51C446.57,424.45,438.64,409.33,427.26,405.59Z"/><path d="M404.7,222.5V422.75c0,23.23,36.1,23.27,36.1,0V222.5C440.8,199.27,404.7,199.23,404.7,222.5Zm22.56,200.25c0,5.81-9,5.8-9,0V222.5c0-5.82,9-5.81,9,0Z"/></g></g></svg>