<svg xmlns="http://www.w3.org/2000/svg" viewBox="0 0 1408.32 284.55"><defs><style>.cls-1{font-size:264.71px;font-family:ArialRoundedMTBold, Arial Rounded MT Bold;}.cls-2{letter-spacing:-0.01em;}.cls-3{letter-spacing:-0.05em;}.cls-4{letter-spacing:0em;}</style></defs><title>onominute_logo_text_black</title><g id="Layer_2" data-name="Layer 2"><g id="logo_edit"><path d="M71.19,88.93a71.19,71.19,0,1,0,71.18,71.18A71.18,71.18,0,0,0,71.19,88.93Zm-.93,116.48a46.23,46.23,0,1,1,46.22-46.22A46.22,46.22,0,0,1,70.26,205.41Z"/><path d="M71,156.34v2.85a.75.75,0,0,1-1.5,0v-2.91a2.93,2.93,0,0,0-1.37.79l-24,24c-2.73,2.74,1.51,7,4.25,4.25l24-24A3,3,0,0,0,71,156.34Z"/><path d="M67.26,125.91v33.28c0,3.86,6,3.87,6,0V125.91C73.26,122.05,67.26,122,67.26,125.91ZM71,159.19a.75.75,0,0,1-1.5,0V125.91a.75.75,0,0,1,1.5,0Z"/><text class="cls-1" transform="translate(145.63 228.71)">nomi<tspan class="cls-2" x="625.72" y="0">n</tspan><tspan x="782.12" y="0">ut</tspan><tspan class="cls-3" x="1035.72" y="0">e</tspan><tspan class="cls-4" x="1179.84" y="0">.</tspan></text><path d="M71.19,88.93a71.19,71.19,0,1,0,71.18,71.18A71.18,71.18,0,0,0,71.19,88.93Zm-.93,116.48a46.23,46.23,0,1,1,46.22-46.22A46.22,46.22,0,0,1,70.26,205.41Z"/><path d="M71,156.34v2.85a.75.75,0,0,1-1.5,0v-2.91a2.93,2.93,0,0,0-1.37.79l-24,24c-2.73,2.74,1.51,7,4.25,4.25l24-24A3,3,0,0,0,71,156.34Z"/><path d="M67.26,125.91v33.28c0,3.86,6,3.87,6,0V125.91C73.26,122.05,67.26,122,67.26,125.91ZM71,159.19a.75.75,0,0,1-1.5,0V125.91a.75.75,0,0,1,1.5,0Z"/><text class="cls-1" transform="translate(145.63 228.71)">nomi<tspan class="cls-2" x="625.72" y="0">n</tspan><tspan x="782.12" y="0">ut</tspan><tspan class="cls-3" x="1035.72" y="0">e</tspan><tspan class="cls-4" x="1179.84" y="0">.</tspan></text></g></g></svg>