<svg xmlns="http://www.w3.org/2000/svg" xmlns:xlink="http://www.w3.org/1999/xlink" viewBox="0 0 1408.32 284.55"><defs><style>.cls-1{font-size:264.71px;font-family:ArialRoundedMTBold, Arial Rounded MT Bold;}.cls-2{letter-spacing:-0.01em;}.cls-3{letter-spacing:-0.05em;}.cls-4{letter-spacing:0em;}.cls-5{fill:url(#linear-gradient);}</style><linearGradient id="linear-gradient" x1="693.17" y1="231.94" x2="693.17" y2="37.54" gradientUnits="userSpaceOnUse"><stop offset="0" stop-color="#002b55"/><stop offset="0.16" stop-color="#072854"/><stop offset="0.39" stop-color="#192151"/><stop offset="0.65" stop-color="#38144c"/><stop offset="0.95" stop-color="#620345"/><stop offset="1" stop-color="#6a0044"/></linearGradient></defs><title>Asset 1</title><g id="Layer_2" data-name="Layer 2"><g id="logo_edit"><path d="M71.19,88.93a71.19,71.19,0,1,0,71.18,71.18A71.18,71.18,0,0,0,71.19,88.93Zm-.93,116.48a46.23,46.23,0,1,1,46.22-46.22A46.22,46.22,0,0,1,70.26,205.41Z"/><path d="M71,156.34v2.85a.75.75,0,0,1-1.5,0v-2.91a2.93,2.93,0,0,0-1.37.79l-24,24c-2.73,2.74,1.51,7,4.25,4.25l24-24A3,3,0,0,0,71,156.34Z"/><path d="M67.26,125.91v33.28c0,3.86,6,3.87,6,0V125.91C73.26,122.05,67.26,122,67.26,125.91ZM71,159.19a.75.75,0,0,1-1.5,0V125.91a.75.75,0,0,1,1.5,0Z"/><text class="cls-1" transform="translate(145.63 228.71)">nomi<tspan class="cls-2" x="625.72" y="0">n</tspan><tspan x="782.12" y="0">ut</tspan><tspan class="cls-3" x="1035.72" y="0">e</tspan><tspan class="cls-4" x="1179.84" y="0">.</tspan></text><path class="cls-5" d="M71.19,88.93a71.19,71.19,0,1,0,71.18,71.18A71.18,71.18,0,0,0,71.19,88.93Zm-.93,116.48a46.23,46.23,0,1,1,46.22-46.22A46.22,46.22,0,0,1,70.26,205.41Z"/><path class="cls-5" d="M71,156.34v2.85a.75.75,0,0,1-1.5,0v-2.91a2.93,2.93,0,0,0-1.37.79l-24,24c-2.73,2.74,1.51,7,4.25,4.25l24-24A3,3,0,0,0,71,156.34Z"/><path class="cls-5" d="M67.26,125.91v33.28c0,3.86,6,3.87,6,0V125.91C73.26,122.05,67.26,122,67.26,125.91ZM71,159.19a.75.75,0,0,1-1.5,0V125.91a.75.75,0,0,1,1.5,0Z"/><path class="cls-5" d="M195.91,108v4.26q9.32-12.27,20.36-18t25.4-5.75a50.67,50.67,0,0,1,24.94,6.08A38.58,38.58,0,0,1,283,111.74a40.81,40.81,0,0,1,4.52,14,144.26,144.26,0,0,1,1,19.13v65.66q0,10.59-4.85,16a16.1,16.1,0,0,1-12.6,5.43,16.29,16.29,0,0,1-12.8-5.55q-4.9-5.56-4.91-15.9V151.68q0-17.46-4.85-26.69t-19.32-9.25a28.61,28.61,0,0,0-17.19,5.63,32.31,32.31,0,0,0-11.38,15.44q-2.58,7.89-2.58,29.47v44.21q0,10.72-5,16.09a16.76,16.76,0,0,1-12.86,5.36,16,16,0,0,1-12.54-5.55q-4.9-5.56-4.91-15.9v-102q0-10.1,4.4-15.06t12-5a16.26,16.26,0,0,1,8.4,2.2,15.7,15.7,0,0,1,6,6.59A23.22,23.22,0,0,1,195.91,108Z"/><path class="cls-5" d="M455.84,160.21a83.26,83.26,0,0,1-4.91,29.08,64.08,64.08,0,0,1-14.22,22.88,62.88,62.88,0,0,1-22.23,14.67,78.68,78.68,0,0,1-29.08,5.1,76.25,76.25,0,0,1-28.82-5.17,63.62,63.62,0,0,1-36.39-37.55,83.13,83.13,0,0,1-4.85-29,84.25,84.25,0,0,1,4.91-29.34,63.86,63.86,0,0,1,14.09-22.75,62.05,62.05,0,0,1,22.24-14.54,84.1,84.1,0,0,1,57.9.06A62.61,62.61,0,0,1,451,131.13,83.69,83.69,0,0,1,455.84,160.21Zm-35.41,0q0-21.59-9.5-33.61t-25.53-12a31.67,31.67,0,0,0-18.23,5.36q-7.87,5.37-12.15,15.84t-4.26,24.43q0,13.83,4.2,24.17t12,15.83a31.16,31.16,0,0,0,18.42,5.5q16,0,25.53-12.09T420.43,160.21Z"/><path class="cls-5" d="M601,162.79v46.92q0,11.11-5,16.68t-13.31,5.55a16.63,16.63,0,0,1-13-5.55q-5-5.56-5-16.68V153.49a181.26,181.26,0,0,0-.91-20.69,22.4,22.4,0,0,0-4.91-12.08q-4-4.71-12.67-4.72-17.33,0-22.81,11.89T517.89,162v47.69q0,11-5,16.61a16.67,16.67,0,0,1-13.12,5.62,16.91,16.91,0,0,1-13.12-5.62q-5.1-5.62-5.11-16.61V108.76q0-9.95,4.59-15.12a15.41,15.41,0,0,1,12.09-5.17,16.4,16.4,0,0,1,12.08,4.85q4.86,4.84,4.85,13.38v3.36q9.18-11,19.65-16.16a51.76,51.76,0,0,1,23.26-5.17q13.32,0,22.88,5.3a41.42,41.42,0,0,1,15.77,16Q605.66,99.2,615.86,94a48.86,48.86,0,0,1,22.62-5.23q14.47,0,24.95,5.69a36.21,36.21,0,0,1,15.64,16.28q4.51,9.57,4.52,30.12v68.89q0,11.11-5,16.68t-13.31,5.55a16.9,16.9,0,0,1-13.12-5.62Q647,220.7,647,209.71V150.38a135.26,135.26,0,0,0-1-18.22,20.92,20.92,0,0,0-5.23-11.5Q636.54,116,627.88,116a23.66,23.66,0,0,0-13.25,4.14,28.13,28.13,0,0,0-9.76,11.11Q601,140.17,601,162.79Z"/><path class="cls-5" d="M735.68,72.06a18.61,18.61,0,0,1-12.6-4.53q-5.24-4.52-5.24-12.79a15.9,15.9,0,0,1,5.37-12.35,18,18,0,0,1,12.47-4.85,18.5,18.5,0,0,1,12.15,4.4q5.29,4.39,5.3,12.8,0,8.13-5.17,12.73A17.89,17.89,0,0,1,735.68,72.06Zm17.45,36.45v102q0,10.59-5,16a16.71,16.71,0,0,1-12.8,5.43,15.94,15.94,0,0,1-12.6-5.55q-4.85-5.56-4.85-15.9V109.54q0-10.47,4.85-15.77a16.29,16.29,0,0,1,12.6-5.3,16.92,16.92,0,0,1,12.8,5.3Q753.13,99.07,753.13,108.51Z"/><path class="cls-5" d="M821.63,108v4.26q9.32-12.27,20.36-18a54.3,54.3,0,0,1,25.4-5.75,50.71,50.71,0,0,1,25,6.08,38.62,38.62,0,0,1,16.41,17.19,41,41,0,0,1,4.53,14,146.23,146.23,0,0,1,1,19.13v65.66q0,10.59-4.85,16a16.1,16.1,0,0,1-12.6,5.43,16.29,16.29,0,0,1-12.8-5.55q-4.9-5.56-4.91-15.9V151.68q0-17.46-4.85-26.69T855,115.74a28.61,28.61,0,0,0-17.19,5.63,32.23,32.23,0,0,0-11.37,15.44q-2.59,7.89-2.59,29.47v44.21q0,10.72-5,16.09A16.74,16.74,0,0,1,806,231.94a16,16,0,0,1-12.53-5.55q-4.92-5.56-4.92-15.9v-102q0-10.1,4.4-15.06t12-5a16.26,16.26,0,0,1,8.4,2.2,15.7,15.7,0,0,1,6,6.59A23.22,23.22,0,0,1,821.63,108Z"/><path class="cls-5" d="M1037.62,212v-4.53A78.61,78.61,0,0,1,1024.3,221a49,49,0,0,1-15.25,8.08,62,62,0,0,1-18.87,2.64,48.82,48.82,0,0,1-22.94-5.29,38.8,38.8,0,0,1-15.71-14.61q-6.59-11.25-6.59-32.31V109.54q0-10.61,4.78-15.83t12.67-5.24a16.83,16.83,0,0,1,12.93,5.3q4.9,5.3,4.91,15.77V166a87.12,87.12,0,0,0,2.07,20.62q2.06,8.34,7.43,13.05t14.54,4.72a29.51,29.51,0,0,0,16.8-5.3,30.94,30.94,0,0,0,11.51-13.83q3-7.49,3-32.83V109.54q0-10.47,4.91-15.77a16.65,16.65,0,0,1,12.8-5.3c5.25,0,9.48,1.75,12.66,5.24s4.79,8.76,4.79,15.83V211.78q0,10.08-4.59,15.12a16.35,16.35,0,0,1-23.79-.19Q1037.62,221.48,1037.62,212Z"/><path class="cls-5" d="M1107.8,91.57h3.88V70.38q0-8.53.45-13.38a19.75,19.75,0,0,1,2.52-8.34,15.92,15.92,0,0,1,5.95-5.88,16.83,16.83,0,0,1,8.66-2.26,17.43,17.43,0,0,1,12.15,5,15,15,0,0,1,4.59,8.21,75.07,75.07,0,0,1,1,13.76v24h12.92q7.5,0,11.44,3.56a11.71,11.71,0,0,1,3.94,9.11q0,7.11-5.62,10T1153.56,117H1147v64.88a104.77,104.77,0,0,0,.58,12.73,13,13,0,0,0,3.1,7.24c1.68,1.86,4.42,2.78,8.21,2.78a44,44,0,0,0,8.4-1.1,43.82,43.82,0,0,1,8.27-1.1,10.63,10.63,0,0,1,7.69,3.43,11.5,11.5,0,0,1,3.43,8.46q0,8.53-9.31,13.06t-26.75,4.52q-16.56,0-25.08-5.55A25.78,25.78,0,0,1,1114.33,211q-2.65-9.81-2.65-26.23V117H1107q-7.63,0-11.64-3.62a11.82,11.82,0,0,1-4-9.18,11.4,11.4,0,0,1,4.2-9.11Q1099.79,91.58,1107.8,91.57Z"/><path class="cls-5" d="M1298.07,168.87h-69a46.8,46.8,0,0,0,4.85,21.19,32.42,32.42,0,0,0,29.79,18.49,42.33,42.33,0,0,0,11.57-1.49,37.77,37.77,0,0,0,10.15-4.65,77.1,77.1,0,0,0,9-6.79q4.13-3.62,10.72-9.82,2.71-2.33,7.76-2.33a12.74,12.74,0,0,1,8.79,3q3.36,3,3.36,8.4,0,4.78-3.75,11.18A44.47,44.47,0,0,1,1310,218.31a64.49,64.49,0,0,1-19,9.76,81.94,81.94,0,0,1-26.3,3.87q-34,0-52.87-19.39T1193,160a87.82,87.82,0,0,1,4.65-29A64.05,64.05,0,0,1,1211.21,108a58.73,58.73,0,0,1,22-14.67,78.92,78.92,0,0,1,29-5.11q20.68,0,35.48,8.73t22.17,22.55a59.32,59.32,0,0,1,7.37,28.18q0,13.32-7.63,17.25T1298.07,168.87Zm-69-20h64q-1.29-18.09-9.75-27.08t-22.3-9q-13.18,0-21.65,9.11T1229,148.83Z"/><path class="cls-5" d="M1367.09,231.94a20.08,20.08,0,0,1-13.83-5.17q-5.82-5.16-5.82-14.47a18.75,18.75,0,0,1,5.56-13.58,18.39,18.39,0,0,1,13.7-5.68,19.12,19.12,0,0,1,13.89,5.62,18.36,18.36,0,0,1,5.76,13.64q0,9.18-5.76,14.41A19.39,19.39,0,0,1,1367.09,231.94Z"/></g></g></svg>